<svg width="46" height="16" viewBox="0 0 46 16" fill="none" xmlns="http://www.w3.org/2000/svg">
<path d="M17.5513 1.1674L11.8917 15.2702H8.10916L5.14609 4.0157C4.9661 3.32249 4.81301 3.06854 4.28337 2.77649C3.41888 2.30056 1.99421 1.85449 0.741876 1.57749L0.822747 1.16763L6.91151 1.16763C7.68763 1.16763 8.39047 1.69435 8.57559 2.60554L10.1621 10.766L13.7923 1.1674L17.5513 1.1674ZM32.4651 10.6656C32.4439 6.94348 27.3784 6.73844 27.397 5.07573C27.4029 4.5697 27.8702 4.03169 28.9033 3.89437C29.4153 3.82594 30.8275 3.77374 32.4372 4.52549L33.0364 1.53493C32.1723 1.21654 31.0615 0.909912 29.6832 0.909912C26.1463 0.909912 23.6759 2.82681 23.6818 5.57165C23.6788 7.60189 25.4893 8.73481 26.8516 9.40944C28.2531 10.1003 28.7254 10.5442 28.7261 11.1622C28.7255 12.1082 27.6271 12.5258 26.597 12.5423C24.7987 12.5705 23.7499 12.0461 22.9141 11.6518L22.2957 14.7413C23.1356 15.1324 24.6822 15.4736 26.2823 15.4907C30.0416 15.4905 32.4822 13.5976 32.4651 10.6656ZM41.8498 15.2702H45.1593L42.1327 1.1674L39.078 1.1674C38.3912 1.1674 37.8158 1.57514 37.5654 2.20203L32.3233 15.2702H36.0807L36.8062 13.1635L41.3972 13.1635L41.8498 15.2702ZM37.8083 10.2731L39.64 4.97815L40.7757 10.2731H37.8083ZM22.6642 1.1674L19.8432 15.2702H16.2649L19.0872 1.1674L22.6642 1.1674Z" fill="white"/>
</svg>
