<svg width="720" height="1161" viewBox="0 0 720 1161" fill="none" xmlns="http://www.w3.org/2000/svg">
<path d="M461.741 698.456C515.082 751.797 548.337 815.094 559.002 874.292C569.667 933.492 557.736 988.542 520.784 1025.49C483.833 1062.44 428.783 1074.38 369.583 1063.71C310.385 1053.05 247.088 1019.79 193.747 966.45C140.406 913.109 107.151 849.812 96.4861 790.614C85.8211 731.414 97.7523 676.364 134.704 639.413C171.655 602.461 226.705 590.53 285.905 601.195C345.103 611.86 408.4 645.115 461.741 698.456Z" stroke="white"/>
<path d="M493.741 666.456C547.082 719.797 580.337 783.094 591.002 842.292C601.667 901.492 589.736 956.542 552.784 993.493C515.833 1030.44 460.783 1042.38 401.583 1031.71C342.385 1021.05 279.088 987.791 225.747 934.45C172.406 881.109 139.151 817.812 128.486 758.614C117.821 699.414 129.752 644.364 166.704 607.413C203.655 570.461 258.705 558.53 317.905 569.195C377.103 579.86 440.4 613.115 493.741 666.456Z" stroke="white"/>
<path d="M525.741 634.456C579.082 687.797 612.337 751.094 623.002 810.292C633.667 869.492 621.736 924.542 584.784 961.493C547.833 998.445 492.783 1010.38 433.583 999.711C374.385 989.046 311.088 955.791 257.747 902.45C204.406 849.109 171.151 785.812 160.486 726.614C149.821 667.414 161.752 612.364 198.704 575.413C235.655 538.461 290.705 526.53 349.905 537.195C409.103 547.86 472.4 581.115 525.741 634.456Z" stroke="white"/>
</svg>
