<svg width="34" height="35" viewBox="0 0 34 35" fill="none" xmlns="http://www.w3.org/2000/svg">
<g clip-path="url(#clip0_1_422)">
<path d="M26.3827 11.5942C26.1563 11.3741 25.8385 11.2741 25.5276 11.3253C25.2161 11.3762 24.9471 11.5718 24.8026 11.8524C24.3056 12.8179 23.6744 13.7051 22.9317 14.4895C23.0057 13.9229 23.043 13.3529 23.043 12.7814C23.043 11.6848 22.896 10.5564 22.606 9.42704C21.6526 5.71752 19.1524 2.58042 15.7467 0.820189C15.4502 0.66699 15.0969 0.672369 14.8052 0.834533C14.5135 0.996764 14.3224 1.2942 14.2963 1.62689C14.0308 4.99794 12.2944 8.06485 9.52969 10.0432C9.4931 10.0696 9.45678 10.0963 9.42045 10.1228C9.34521 10.1779 9.27429 10.23 9.20802 10.2737C9.19766 10.2806 9.18737 10.2876 9.17727 10.2948C7.43849 11.5398 6.00378 13.1992 5.02808 15.0944C4.03663 17.0221 3.53394 19.0907 3.53394 21.2426C3.53394 22.3389 3.68089 23.4673 3.97076 24.5969C5.50042 30.5507 10.8583 34.7089 17.0003 34.7089C24.4252 34.7089 30.4658 28.6679 30.4658 21.2426C30.4658 17.581 29.0157 14.1544 26.3827 11.5942Z" fill="#FF5555"/>
<circle cx="16" cy="20.709" r="4" fill="white"/>
</g>
<defs>
<clipPath id="clip0_1_422">
<rect width="34" height="34" fill="white" transform="translate(0 0.708984)"/>
</clipPath>
</defs>
</svg>
