<svg width="67" height="31" viewBox="0 0 67 31" fill="none" xmlns="http://www.w3.org/2000/svg">
<path d="M6.58636 23.8392C7.62229 23.8392 8.53869 23.6499 9.33556 23.2714C10.1324 22.873 10.7401 22.2753 11.1584 21.4784V23.4806H15.342V7.16463H10.8596V16.6972C10.8596 17.6335 10.5807 18.3906 10.0229 18.9683C9.46506 19.5261 8.74787 19.805 7.87131 19.805C6.99475 19.805 6.27757 19.5261 5.71976 18.9683C5.16195 18.3906 4.88304 17.6335 4.88304 16.6972V7.16463H0.400635V17.0558C0.400635 19.0878 0.928563 20.7314 1.98442 21.9864C3.0602 23.2216 4.59417 23.8392 6.58636 23.8392Z" fill="black"/>
<path d="M18.6181 5.70037H23.1005V1.21797H18.6181V5.70037ZM18.6181 23.4806H23.1005V7.16463H18.6181V23.4806Z" fill="black"/>
<path d="M28.3529 23.4806H32.8353V11.0494H36.3316V7.16463H32.8353V6.92556C32.8353 5.47127 33.682 4.74413 35.3753 4.74413C35.6542 4.74413 35.9829 4.77401 36.3614 4.83378V1.00879C35.9032 0.909179 35.3753 0.859375 34.7777 0.859375C32.7456 0.859375 31.1618 1.3873 30.0263 2.44316C28.9107 3.49901 28.3529 4.99315 28.3529 6.92556V7.16463H25.6037V11.0494H28.3529V23.4806Z" fill="black"/>
<path d="M38.6372 23.4806H43.1196V14.6951C43.1196 13.4798 43.4583 12.5435 44.1356 11.8861C44.813 11.2088 45.6995 10.8701 46.7952 10.8701H48.1997V6.98533H47.2434C46.2473 6.98533 45.3608 7.17459 44.5838 7.5531C43.8268 7.91169 43.2391 8.599 42.8208 9.61501V7.16463H38.6372V23.4806Z" fill="black"/>
<path d="M52.7042 30.1145C55.6925 30.1145 57.854 28.4112 59.1888 25.0046L66.1813 7.16463H61.3702L57.5154 17.6535L53.6605 7.16463H48.8494L55.2742 23.4806L54.9753 24.1679C54.7363 24.7058 54.4275 25.1839 54.049 25.6023C53.6704 26.0206 53.0429 26.2298 52.1664 26.2298C51.4492 26.2298 50.7718 26.1302 50.1343 25.931V29.6065C50.473 29.7858 50.8615 29.9153 51.2998 29.995C51.758 30.0747 52.2261 30.1145 52.7042 30.1145Z" fill="black"/>
</svg>
